<?xml version="1.0" standalone="no"?>
<!DOCTYPE svg PUBLIC "-//W3C//DTD SVG 20010904//EN"
 "http://www.w3.org/TR/2001/REC-SVG-20010904/DTD/svg10.dtd">
<svg version="1.0" xmlns="http://www.w3.org/2000/svg"
 width="1024.000000pt" height="1024.000000pt" viewBox="0 0 1024.000000 1024.000000"
 preserveAspectRatio="xMidYMid meet">

<g transform="translate(0.000000,1024.000000) scale(0.100000,-0.100000)"
fill="#000000" stroke="none">
<path d="M0 5120 l0 -5120 5120 0 5120 0 0 5120 0 5120 -5120 0 -5120 0 0
-5120z m6848 2491 c185 -41 324 -112 437 -226 186 -186 227 -447 108 -679 -46
-88 -188 -234 -283 -289 -165 -95 -317 -132 -545 -131 -393 1 -763 109 -1130
329 -60 36 -110 65 -112 65 -2 0 -42 -31 -91 -68 -106 -84 -166 -120 -257
-158 -61 -25 -83 -28 -170 -28 -89 -1 -106 2 -150 26 -27 14 -60 37 -72 50
-34 36 -63 108 -63 159 0 82 26 137 104 214 77 77 164 126 256 146 68 15 237
6 305 -15 l50 -16 88 95 c268 288 621 476 1012 540 125 20 387 13 513 -14z
m-3752 -816 c326 -62 478 -331 347 -612 -66 -142 -233 -244 -332 -203 -43 17
-49 46 -18 78 70 73 104 228 74 333 -64 215 -360 252 -561 68 -98 -89 -142
-209 -134 -362 4 -74 10 -97 42 -164 35 -72 55 -95 265 -303 241 -238 290
-294 346 -395 59 -105 86 -197 92 -315 13 -247 -73 -446 -279 -646 -221 -216
-459 -316 -753 -317 -159 -1 -249 18 -360 72 -124 61 -197 140 -245 266 -33
86 -34 234 -2 326 80 232 322 429 527 429 94 0 155 -38 155 -96 0 -37 -15 -50
-117 -104 -253 -133 -279 -450 -47 -577 148 -81 353 -54 527 70 203 145 277
345 206 559 -42 126 -123 234 -301 399 -211 195 -382 370 -410 419 -53 91 -73
175 -72 295 1 128 27 225 91 335 85 145 262 293 443 371 189 81 354 105 516
74z m4049 -808 c38 -38 57 -96 54 -162 -2 -26 3 -51 10 -58 9 -9 57 -11 178
-10 151 2 170 0 199 -18 65 -40 84 -149 36 -216 -68 -96 -180 -363 -202 -480
-29 -161 66 -189 205 -61 81 74 95 102 106 215 25 249 96 405 246 543 298 274
657 258 701 -32 36 -243 -168 -467 -545 -598 -106 -37 -110 -44 -72 -125 15
-32 35 -53 65 -71 39 -23 53 -26 117 -22 107 5 186 47 297 157 47 47 102 105
121 129 43 54 65 57 96 13 49 -72 23 -138 -108 -276 -89 -93 -210 -175 -321
-217 -75 -29 -94 -32 -198 -32 -104 -1 -120 2 -171 25 -67 32 -127 88 -167
158 l-28 50 -50 -50 c-183 -189 -400 -248 -523 -142 -62 53 -84 102 -89 203
-7 136 36 269 153 481 36 64 65 123 65 132 0 11 -13 17 -42 21 -98 12 -148 13
-157 2 -4 -6 -30 -65 -56 -131 -71 -177 -128 -295 -174 -363 -174 -256 -502
-445 -746 -429 -135 8 -224 54 -292 149 l-36 50 -76 -75 c-90 -89 -154 -131
-240 -157 -108 -34 -194 -23 -258 33 -102 90 -100 243 8 564 58 172 70 250 45
276 -22 21 -39 21 -82 1 -93 -44 -262 -293 -341 -504 -14 -35 -42 -134 -63
-220 -49 -192 -55 -200 -166 -200 -80 0 -126 16 -144 49 -20 38 -26 11 124
591 30 118 67 278 82 355 33 169 45 185 126 185 66 0 114 -27 134 -75 16 -39
18 -124 5 -173 -5 -17 -7 -32 -3 -32 4 1 29 33 57 71 57 81 164 186 228 223
24 14 74 33 111 43 168 41 280 -50 279 -227 0 -93 -12 -150 -75 -360 -27 -91
-54 -197 -60 -237 -10 -62 -9 -75 6 -97 10 -15 26 -26 39 -26 49 0 163 96 202
171 8 14 19 72 24 127 21 204 103 367 259 513 113 107 223 172 344 205 142 37
245 -9 303 -137 40 -90 45 -179 13 -238 -42 -79 -137 -106 -196 -56 -34 29
-46 71 -31 115 9 24 8 35 -5 55 -66 101 -309 -126 -354 -330 -29 -131 -22
-233 23 -310 55 -94 183 -113 320 -46 85 41 236 188 307 297 51 78 135 240
167 322 22 56 28 127 11 137 -6 4 -24 30 -40 58 -62 107 -28 238 75 295 11 6
46 12 79 12 53 0 61 -3 91 -33z m-2725 -299 c55 -38 72 -81 67 -168 -6 -90
-19 -152 -102 -505 -35 -148 -78 -337 -95 -420 -136 -650 -273 -973 -481
-1129 -134 -101 -259 -146 -402 -146 -106 0 -174 21 -232 72 -61 54 -79 105
-73 216 3 75 9 99 39 163 71 148 209 303 361 405 83 56 250 139 358 179 41 15
80 33 87 39 9 9 84 306 79 313 -1 1 -42 -37 -92 -85 -96 -94 -157 -133 -249
-157 -154 -40 -268 6 -310 125 -42 120 -27 285 54 573 28 98 57 217 66 265 9
48 19 101 23 117 18 77 197 95 275 27 25 -22 22 -96 -9 -244 -108 -521 -114
-587 -57 -609 39 -15 121 29 176 94 133 158 198 310 283 656 40 164 49 189 75
214 39 36 110 38 159 5z m2525 -1612 c182 -32 232 -53 261 -108 21 -41 12 -93
-22 -129 -43 -45 -77 -52 -185 -35 -680 107 -1389 -39 -1949 -401 -142 -92
-248 -181 -391 -324 -109 -111 -142 -139 -171 -144 -69 -13 -138 45 -138 117
0 76 208 312 405 459 441 329 994 522 1675 583 97 9 428 -3 515 -18z"/>
<path d="M6365 7349 c-277 -36 -554 -176 -805 -408 l-65 -60 25 -21 c51 -41
330 -171 460 -214 212 -70 375 -99 555 -100 169 -1 258 18 369 77 250 133 310
409 127 580 -134 126 -388 181 -666 146z"/>
<path d="M4865 6786 c-96 -36 -118 -136 -30 -136 59 0 230 109 207 132 -17 17
-135 19 -177 4z"/>
<path d="M8315 5722 c-57 -27 -143 -125 -191 -217 -40 -80 -82 -210 -71 -221
10 -11 99 29 172 76 126 83 215 208 215 303 0 67 -54 92 -125 59z"/>
<path d="M3823 4165 c-155 -72 -292 -186 -357 -298 -39 -66 -76 -174 -76 -224
0 -57 31 -92 88 -100 103 -14 202 67 282 230 42 87 150 386 150 417 0 14 -7
12 -87 -25z"/>
</g>
</svg>
