<svg width="1024" height="1024" viewBox="0 0 1024 1024" fill="none" xmlns="http://www.w3.org/2000/svg">
<path d="M348.949 816.639C323.884 816.639 304.743 809.803 291.527 796.131C278.539 782.687 272.045 762.407 272.045 735.291V499.793C272.045 472.905 278.539 452.739 291.527 439.295C304.743 425.623 323.884 418.787 348.949 418.787H661.693C686.758 418.787 705.785 425.623 718.773 439.295C731.99 452.739 738.598 472.905 738.598 499.793V735.291C738.598 762.407 731.99 782.687 718.773 796.131C705.785 809.803 686.758 816.639 661.693 816.639H348.949ZM350.658 765.027H659.984C667.504 765.027 673.201 762.749 677.074 758.191C681.176 753.862 683.227 747.482 683.227 739.051V496.033C683.227 487.602 681.176 481.222 677.074 476.893C673.201 472.563 667.504 470.398 659.984 470.398H350.658C343.367 470.398 337.67 472.563 333.568 476.893C329.467 481.222 327.416 487.602 327.416 496.033V739.051C327.416 747.482 329.467 753.862 333.568 758.191C337.67 762.749 343.367 765.027 350.658 765.027ZM331.859 445.105V337.098C331.859 294.259 340.062 258.712 356.469 230.457C373.103 202.202 394.636 181.124 421.068 167.225C447.501 153.325 475.528 146.375 505.15 146.375C535.001 146.375 563.142 153.325 589.574 167.225C616.007 181.124 637.426 202.202 653.832 230.457C670.466 258.712 678.783 294.259 678.783 337.098V445.105H624.779V329.92C624.779 301.209 619.197 277.055 608.031 257.459C597.094 237.863 582.51 223.051 564.281 213.025C546.28 202.999 526.57 197.986 505.15 197.986C483.959 197.986 464.249 202.999 446.02 213.025C428.018 223.051 413.549 237.863 402.611 257.459C391.674 277.055 386.205 301.209 386.205 329.92V445.105H331.859Z" fill="black" style="fill:black;fill-opacity:1;"/>
<path d="M527.647 629.997H590.069C591.896 629.997 593.445 629.388 594.718 628.171C595.991 626.898 596.627 625.349 596.627 623.522C596.627 621.641 595.991 620.091 594.718 618.874C593.445 617.657 591.896 617.048 590.069 617.048H527.647C525.711 617.048 524.133 617.657 522.916 618.874C521.699 620.091 521.09 621.641 521.09 623.522C521.09 625.349 521.699 626.898 522.916 628.171C524.133 629.388 525.711 629.997 527.647 629.997ZM527.647 661.955H573.302C575.128 661.955 576.677 661.374 577.95 660.212C579.278 658.994 579.942 657.473 579.942 655.646C579.942 653.82 579.278 652.271 577.95 650.998C576.677 649.67 575.128 649.006 573.302 649.006H527.647C525.711 649.006 524.133 649.67 522.916 650.998C521.699 652.271 521.09 653.82 521.09 655.646C521.09 657.473 521.699 658.994 522.916 660.212C524.133 661.374 525.711 661.955 527.647 661.955ZM520.011 697.897C512.042 697.897 505.346 696.486 499.923 693.664C494.555 690.897 490.488 686.83 487.721 681.462C484.954 676.039 483.57 669.398 483.57 661.54V616.633C483.57 608.775 484.954 602.134 487.721 596.711C490.488 591.288 494.555 587.193 499.923 584.426C505.346 581.604 512.042 580.192 520.011 580.192H597.125C605.094 580.192 611.762 581.604 617.13 584.426C622.553 587.193 626.648 591.288 629.415 596.711C632.182 602.134 633.565 608.775 633.565 616.633V661.54C633.565 669.398 632.182 676.039 629.415 681.462C626.648 686.83 622.553 690.897 617.13 693.664C611.762 696.486 605.094 697.897 597.125 697.897H595.382V717.819C595.382 720.974 594.607 723.492 593.058 725.373C591.508 727.255 589.295 728.195 586.417 728.195C584.425 728.195 582.571 727.642 580.855 726.535C579.195 725.428 577.12 723.796 574.63 721.638L546.905 697.897H520.011ZM395.167 639.958V576.291C395.167 568.212 396.606 561.35 399.483 555.705C402.416 550.005 406.705 545.689 412.35 542.756C417.994 539.768 424.939 538.273 433.185 538.273H540.099C550.779 538.273 559.273 540.791 565.582 545.827C571.946 550.863 575.847 558.002 577.286 567.243V568.903H520.011C509.939 568.903 501.334 570.812 494.195 574.631C487.057 578.449 481.606 583.928 477.843 591.066C474.135 598.205 472.281 606.727 472.281 616.633V661.54C472.281 671.003 474.024 679.248 477.511 686.276L458.17 703.459C455.68 705.673 453.577 707.305 451.861 708.356C450.146 709.463 448.264 710.017 446.217 710.017C443.339 710.017 441.098 709.076 439.493 707.194C437.944 705.313 437.169 702.767 437.169 699.558V677.893H433.185C424.939 677.893 417.994 676.426 412.35 673.493C406.705 670.56 402.416 666.271 399.483 660.627C396.606 654.927 395.167 648.037 395.167 639.958Z" fill="black" style="fill:black;fill-opacity:1;"/>
</svg>
